<svg width="72" height="72" viewBox="0 0 72 72" fill="none" xmlns="http://www.w3.org/2000/svg">
<path d="M36 0C16.056 0 0 16.056 0 36C0 55.944 16.056 72 36 72C55.944 72 72 55.944 72 36C72 16.056 55.944 0 36 0ZM44.4 12.999C44.79 12.987 45.144 13.407 44.913 13.833L35.781 30.573C35.7348 30.6584 35.7116 30.7542 35.7135 30.8513C35.7154 30.9483 35.7425 31.0431 35.7921 31.1266C35.8417 31.21 35.912 31.2791 35.9963 31.3272C36.0806 31.3753 36.176 31.4008 36.273 31.401H52.053C52.563 31.401 52.809 32.022 52.437 32.37L24.777 58.185C24.282 58.647 23.547 57.996 23.943 57.447L37.035 39.384C37.095 39.3004 37.1308 39.2018 37.1386 39.0992C37.1463 38.9965 37.1257 38.8938 37.0789 38.8021C37.0321 38.7104 36.961 38.6333 36.8734 38.5793C36.7857 38.5253 36.6849 38.4965 36.582 38.496H19.881C19.7699 38.4957 19.6613 38.4625 19.5692 38.4004C19.477 38.3384 19.4053 38.2504 19.3632 38.1475C19.3211 38.0447 19.3105 37.9317 19.3327 37.8228C19.3549 37.7139 19.409 37.6141 19.488 37.536L44.028 13.167C44.1264 13.0643 44.2609 13.004 44.403 12.999H44.4Z" fill="#222222"/>
</svg>
