<svg width="72" height="72" viewBox="0 0 72 72" fill="none" xmlns="http://www.w3.org/2000/svg">
<g clip-path="url(#clip0_131_152)">
<path d="M69.4463 7.75805L54.6345 0.632297C53.7968 0.226453 52.8534 0.0917919 51.9356 0.247047C51.0178 0.402302 50.1711 0.839753 49.5135 1.49855L21.1433 27.3848L8.7795 18.009C8.22269 17.5834 7.53411 17.3666 6.83386 17.3966C6.1336 17.4267 5.4661 17.7015 4.94775 18.1733L0.987754 21.7823C0.67824 22.062 0.430626 22.4033 0.260808 22.7844C0.0909889 23.1654 0.00271695 23.5778 0.0016576 23.9949C0.000598249 24.4121 0.0867749 24.8249 0.254656 25.2068C0.422538 25.5887 0.668414 25.9313 0.976504 26.2125L11.7 35.9978L0.976504 45.783C0.668414 46.0643 0.422538 46.4069 0.254656 46.7888C0.0867749 47.1707 0.000598249 47.5835 0.0016576 48.0007C0.00271695 48.4178 0.0909889 48.8302 0.260808 49.2112C0.430626 49.5923 0.67824 49.9336 0.987754 50.2133L4.94775 53.8223C5.4661 54.2941 6.1336 54.5689 6.83386 54.5989C7.53411 54.629 8.22269 54.4122 8.7795 53.9865L21.1433 44.5995L49.527 70.497C50.1823 71.1558 51.027 71.5933 51.9431 71.7486C52.8592 71.9039 53.801 71.7692 54.6368 71.3633L69.462 64.2263C70.2254 63.8596 70.8694 63.2841 71.3194 62.5666C71.7693 61.849 72.0069 61.0187 72.0045 60.1718V11.808C72.0045 10.0845 71.0078 8.5028 69.4508 7.75355L69.4463 7.75805ZM54.0113 52.3485L32.472 36L54.0113 19.6515V52.3485Z" fill="#222222"/>
</g>
<defs>
<clipPath id="clip0_131_152">
<rect width="72" height="72" fill="white"/>
</clipPath>
</defs>
</svg>
