<svg width="72" height="72" viewBox="0 0 72 72" fill="none" xmlns="http://www.w3.org/2000/svg">
<path d="M36 65.955C35.175 65.955 34.404 65.733 33.684 65.349L26.367 61.005C25.272 60.396 25.821 60.174 26.151 60.063C27.639 59.568 27.915 59.46 29.454 58.584C29.622 58.473 29.841 58.524 30.009 58.635L35.619 61.995C35.841 62.103 36.117 62.103 36.282 61.995L58.239 49.284C58.461 49.176 58.569 48.954 58.569 48.678V23.304C58.569 23.031 58.461 22.809 58.239 22.701L36.282 10.044C36.063 9.93296 35.787 9.93296 35.619 10.044L13.656 22.698C13.437 22.806 13.326 23.085 13.326 23.301V48.672C13.326 48.891 13.437 49.17 13.656 49.278L19.656 52.749C22.902 54.393 24.942 52.464 24.942 50.544V25.506C24.942 25.176 25.215 24.843 25.602 24.843H28.41C28.734 24.843 29.07 25.119 29.07 25.506V50.547C29.07 54.894 26.706 57.429 22.578 57.429C21.312 57.429 20.322 57.429 17.514 56.049L11.739 52.752C11.0354 52.3429 10.4515 51.7564 10.0456 51.0509C9.63967 50.3455 9.42604 49.5458 9.42603 48.732V23.358C9.42603 21.708 10.305 20.166 11.739 19.341L33.687 6.62996C34.3995 6.24892 35.195 6.04956 36.003 6.04956C36.811 6.04956 37.6065 6.24892 38.319 6.62996L60.27 19.341C61.707 20.163 62.583 21.708 62.583 23.358V48.732C62.583 50.379 61.704 51.921 60.27 52.752L38.319 65.46C37.596 65.79 36.771 65.955 36 65.955ZM42.768 48.507C33.138 48.507 31.158 44.103 31.158 40.365C31.158 40.035 31.434 39.702 31.818 39.702H34.68C35.01 39.702 35.283 39.921 35.283 40.254C35.724 43.167 36.987 44.601 42.825 44.601C47.445 44.601 49.431 43.551 49.431 41.076C49.431 39.645 48.876 38.601 41.67 37.887C35.673 37.287 31.932 35.958 31.932 31.173C31.932 26.718 35.673 24.075 41.949 24.075C48.99 24.075 52.458 26.502 52.896 31.779C52.8908 31.9571 52.8323 32.1295 52.728 32.274C52.617 32.382 52.455 32.493 52.29 32.493H49.431C49.2897 32.49 49.1534 32.44 49.0437 32.3509C48.9339 32.2618 48.857 32.1387 48.825 32.001C48.162 28.965 46.458 27.981 41.949 27.981C36.882 27.981 36.276 29.742 36.276 31.062C36.276 32.655 36.987 33.15 43.818 34.032C50.586 34.911 53.778 36.177 53.778 40.914C53.718 45.759 49.761 48.507 42.768 48.507Z" fill="#222222"/>
</svg>
