<svg width="72" height="72" viewBox="0 0 72 72" fill="none" xmlns="http://www.w3.org/2000/svg">
<path d="M0 36V72H72V0H0V36ZM58.0185 33.129C59.7446 33.5354 61.3132 34.4398 62.5298 35.73C63.1868 36.432 64.17 37.7212 64.2533 38.0385C64.2757 38.133 61.1483 40.23 59.2493 41.4022C59.1795 41.4495 58.8983 41.157 58.5923 40.698C57.6675 39.3503 56.6932 38.7652 55.206 38.6595C53.0257 38.5177 51.6195 39.6563 51.6308 41.5665C51.6193 42.0339 51.7237 42.4969 51.9345 42.9142C52.416 43.911 53.3183 44.5073 56.106 45.7155C61.263 47.9295 63.4658 49.3942 64.836 51.4688C66.3705 53.7885 66.7103 57.492 65.6797 60.2573C64.5322 63.2453 61.695 65.2838 57.7103 65.952C56.4795 66.1748 53.55 66.1387 52.2248 65.8935C49.3312 65.3783 46.5885 63.9473 44.901 62.073C44.2327 61.3462 42.9435 59.436 43.0267 59.3077C43.0627 59.2605 43.3553 59.0737 43.6838 58.8848L46.3568 57.3368L48.4312 56.1308L48.8655 56.7743C49.4753 57.699 50.7982 58.9657 51.597 59.3865C53.8942 60.606 57.0465 60.4305 58.6058 59.0355C59.238 58.509 59.5913 57.699 59.544 56.88C59.544 56.0475 59.4383 55.674 59.004 55.0507C58.4415 54.2542 57.3052 53.5748 54.0585 52.1685C50.3437 50.562 48.7373 49.5788 47.286 47.997C46.3724 46.9559 45.6967 45.7281 45.306 44.3993C45.036 43.38 44.9663 40.824 45.1777 39.8047C45.9405 36.207 48.6585 33.7118 52.56 32.9738C53.8268 32.7285 56.7788 32.8207 58.0208 33.1267L58.0185 33.129ZM41.121 36.1418L41.1435 39.0825H31.7678V65.7202H25.1347V39.0825H15.7725V36.2003C15.7725 34.5938 15.8085 33.2595 15.8535 33.2235C15.8895 33.1763 21.5843 33.1538 28.4985 33.165L41.085 33.201L41.121 36.1418Z" fill="#222222"/>
</svg>
